{
  "accessors": [
    {
      "bufferView": 2,
      "componentType": 5126,
      "count": 65532,
      "max": [
        8.030340194702148,
        -0.6326730251312256,
        5.16431999206543
      ],
      "min": [
        -7.708869934082031,
        -28.025699615478516,
        -7.687530040740967
      ],
      "type": "VEC3"
    },
    {
      "bufferView": 2,
      "byteOffset": 786384,
      "componentType": 5126,
      "count": 65532,
      "max": [
        0.9999606609344482,
        0.9999966621398926,
        0.9999735355377197
      ],
      "min": [
        -0.9999728798866272,
        -0.9999687671661377,
        -0.9998932480812073
      ],
      "type": "VEC3"
    },
    {
      "bufferView": 3,
      "componentType": 5126,
      "count": 65532,
      "max": [
        0.9999889731407166,
        0.9999956488609314,
        0.9999595880508423,
        1.0
      ],
      "min": [
        -0.9999973773956299,
        -0.9999940395355225,
        -0.9999735951423645,
        -1.0
      ],
      "type": "VEC4"
    },
    {
      "bufferView": 1,
      "componentType": 5126,
      "count": 65532,
      "max": [
        0.9975399971008301,
        0.9945300221443176
      ],
      "min": [
        0.0019499999471008778,
        0.0019499999471008778
      ],
      "type": "VEC2"
    },
    {
      "bufferView": 0,
      "componentType": 5125,
      "count": 323031,
      "type": "SCALAR"
    },
    {
      "bufferView": 2,
      "byteOffset": 1572768,
      "componentType": 5126,
      "count": 65532,
      "max": [
        8.030340194702148,
        -0.6326730251312256,
        7.758299827575684
      ],
      "min": [
        -7.3505401611328125,
        -28.025699615478516,
        -8.19225025177002
      ],
      "type": "VEC3"
    },
    {
      "bufferView": 2,
      "byteOffset": 2359152,
      "componentType": 5126,
      "count": 65532,
      "max": [
        0.9997546672821045,
        0.9999962449073792,
        0.9997578859329224
      ],
      "min": [
        -0.9999728798866272,
        -0.9999768733978271,
        -0.9999786615371704
      ],
      "type": "VEC3"
    },
    {
      "bufferView": 3,
      "byteOffset": 1048512,
      "componentType": 5126,
      "count": 65532,
      "max": [
        0.9999920725822449,
        0.9999638795852661,
        0.9999949336051941,
        1.0
      ],
      "min": [
        -0.9999844431877136,
        -0.9999898672103882,
        -0.9999842643737793,
        -1.0
      ],
      "type": "VEC4"
    },
    {
      "bufferView": 1,
      "byteOffset": 524256,
      "componentType": 5126,
      "count": 65532,
      "max": [
        0.9980400204658508,
        0.9978799819946289
      ],
      "min": [
        0.0019499999471008778,
        0.0019499999471008778
      ],
      "type": "VEC2"
    },
    {
      "bufferView": 0,
      "byteOffset": 1292124,
      "componentType": 5125,
      "count": 316152,
      "type": "SCALAR"
    },
    {
      "bufferView": 2,
      "byteOffset": 3145536,
      "componentType": 5126,
      "count": 32507,
      "max": [
        7.9298601150512695,
        -0.6326730251312256,
        7.758299827575684
      ],
      "min": [
        -7.888269901275635,
        -27.94580078125,
        -8.122710227966309
      ],
      "type": "VEC3"
    },
    {
      "bufferView": 2,
      "byteOffset": 3535620,
      "componentType": 5126,
      "count": 32507,
      "max": [
        0.9999566674232483,
        0.9999911189079285,
        0.9999884963035583
      ],
      "min": [
        -0.9998375177383423,
        -0.9999535083770752,
        -0.9992071390151978
      ],
      "type": "VEC3"
    },
    {
      "bufferView": 3,
      "byteOffset": 2097024,
      "componentType": 5126,
      "count": 32507,
      "max": [
        0.9999540448188782,
        0.9999983906745911,
        0.9999649524688721,
        1.0
      ],
      "min": [
        -0.9996855854988098,
        -0.9999985098838806,
        -0.9999613761901855,
        -1.0
      ],
      "type": "VEC4"
    },
    {
      "bufferView": 1,
      "byteOffset": 1048512,
      "componentType": 5126,
      "count": 32507,
      "max": [
        0.9974499940872192,
        0.9776300191879272
      ],
      "min": [
        0.009700000286102295,
        0.0019499999471008778
      ],
      "type": "VEC2"
    },
    {
      "bufferView": 0,
      "byteOffset": 2556732,
      "componentType": 5125,
      "count": 152853,
      "type": "SCALAR"
    }
  ],
  "asset": {
    "extras": {
      "author": "Virtual Museums of Małopolska (https://sketchfab.com/WirtualneMuzeaMalopolski)",
      "license": "CC0-1.0 (http://creativecommons.org/publicdomain/zero/1.0/)",
      "source": "https://sketchfab.com/3d-models/chalice-5b64159df5624baaa369423db7235ee4",
      "title": "Chalice"
    },
    "generator": "Sketchfab-12.68.0",
    "version": "2.0"
  },
  "bufferViews": [
    {
      "buffer": 0,
      "byteLength": 3168144,
      "name": "floatBufferViews",
      "target": 34963
    },
    {
      "buffer": 0,
      "byteLength": 1308568,
      "byteOffset": 3168144,
      "byteStride": 8,
      "name": "floatBufferViews",
      "target": 34962
    },
    {
      "buffer": 0,
      "byteLength": 3925704,
      "byteOffset": 4476712,
      "byteStride": 12,
      "name": "floatBufferViews",
      "target": 34962
    },
    {
      "buffer": 0,
      "byteLength": 2617136,
      "byteOffset": 8402416,
      "byteStride": 16,
      "name": "floatBufferViews",
      "target": 34962
    }
  ],
  "buffers": [
    {
      "byteLength": 11019552,
      "uri": "scene.bin"
    }
  ],
  "images": [
    {
      "uri": "textures/NL_02_2019_Kielich_07_FIN_u1_v1_baseColor.jpeg"
    },
    {
      "uri": "textures/NL_02_2019_Kielich_07_FIN_u1_v1_metallicRoughness.png"
    },
    {
      "uri": "textures/NL_02_2019_Kielich_07_FIN_u1_v1_normal.png"
    }
  ],
  "materials": [
    {
      "doubleSided": true,
      "name": "NL_02_2019_Kielich_07_FIN_u1_v1",
      "normalTexture": {
        "index": 2
      },
      "occlusionTexture": {
        "index": 1
      },
      "pbrMetallicRoughness": {
        "baseColorTexture": {
          "index": 0
        },
        "metallicFactor": 0.8431783536585366,
        "metallicRoughnessTexture": {
          "index": 1
        }
      }
    }
  ],
  "meshes": [
    {
      "name": "Object_0",
      "primitives": [
        {
          "attributes": {
            "NORMAL": 1,
            "POSITION": 0,
            "TANGENT": 2,
            "TEXCOORD_0": 3
          },
          "indices": 4,
          "material": 0,
          "mode": 4
        }
      ]
    },
    {
      "name": "Object_1",
      "primitives": [
        {
          "attributes": {
            "NORMAL": 6,
            "POSITION": 5,
            "TANGENT": 7,
            "TEXCOORD_0": 8
          },
          "indices": 9,
          "material": 0,
          "mode": 4
        }
      ]
    },
    {
      "name": "Object_2",
      "primitives": [
        {
          "attributes": {
            "NORMAL": 11,
            "POSITION": 10,
            "TANGENT": 12,
            "TEXCOORD_0": 13
          },
          "indices": 14,
          "material": 0,
          "mode": 4
        }
      ]
    }
  ],
  "nodes": [
    {
      "children": [
        1
      ],
      "matrix": [
        1.0,
        0.0,
        0.0,
        0.0,
        0.0,
        -1.0,
        -4.440892098500626e-16,
        0.0,
        0.0,
        4.440892098500626e-16,
        -1.0,
        0.0,
        0.0,
        -14.546176910400394,
        14.112207412719723,
        1.0
      ],
      "name": "Sketchfab_model"
    },
    {
      "children": [
        2,
        3,
        4
      ],
      "name": "NL_02_2019_Kielich_FIN.obj.cleaner.materialmerger.gles"
    },
    {
      "mesh": 0,
      "name": "Object_2"
    },
    {
      "mesh": 1,
      "name": "Object_3"
    },
    {
      "mesh": 2,
      "name": "Object_4"
    }
  ],
  "samplers": [
    {
      "magFilter": 9729,
      "minFilter": 9987,
      "wrapS": 10497,
      "wrapT": 10497
    }
  ],
  "scene": 0,
  "scenes": [
    {
      "name": "Sketchfab_Scene",
      "nodes": [
        0
      ]
    }
  ],
  "textures": [
    {
      "sampler": 0,
      "source": 0
    },
    {
      "sampler": 0,
      "source": 1
    },
    {
      "sampler": 0,
      "source": 2
    }
  ]
}
